# Blender v2.80 (sub 75) OBJ File: 'bone.blend'
# www.blender.org
mtllib Bone.mtl
o Icosphere
v 4.250000 -0.250000 0.000000
v 4.430902 -0.111805 0.131431
v 4.180903 -0.111805 0.212662
v 4.026393 -0.111804 0.000000
v 4.180903 -0.111805 -0.212662
v 4.430902 -0.111805 -0.131431
v 4.319097 0.111805 0.212662
v 4.069098 0.111805 0.131431
v 4.069098 0.111805 -0.131431
v 4.319097 0.111805 -0.212662
v 4.473607 0.111804 0.000000
v 4.250000 0.250000 0.000000
v 4.209386 -0.212664 0.124999
v 4.356331 -0.212664 0.077253
v 4.315717 -0.131434 0.202253
v 4.462662 -0.131434 0.000000
v 4.356331 -0.212664 -0.077253
v 4.118567 -0.212663 0.000000
v 4.077952 -0.131434 0.124999
v 4.209386 -0.212664 -0.124999
v 4.077952 -0.131434 -0.124999
v 4.315717 -0.131434 -0.202253
v 4.487764 0.000000 0.077253
v 4.487764 0.000000 -0.077253
v 4.250000 0.000000 0.250000
v 4.396946 0.000000 0.202254
v 4.012236 0.000000 0.077253
v 4.103054 0.000000 0.202254
v 4.103054 0.000000 -0.202254
v 4.012236 0.000000 -0.077253
v 4.396946 0.000000 -0.202254
v 4.250000 0.000000 -0.250000
v 4.422048 0.131434 0.124999
v 4.184283 0.131434 0.202253
v 4.037338 0.131434 0.000000
v 4.184283 0.131434 -0.202253
v 4.422048 0.131434 -0.124999
v 4.290614 0.212664 0.124999
v 4.381433 0.212663 0.000000
v 4.143669 0.212664 0.077253
v 4.143669 0.212664 -0.077253
v 4.290614 0.212664 -0.124999
vt 0.818181 0.000000
vt 0.772726 0.078731
vt 0.863635 0.078731
vt 0.727272 0.157461
vt 0.681818 0.078731
vt 0.636363 0.157461
vt 0.090909 0.000000
vt 0.045454 0.078731
vt 0.136363 0.078731
vt 0.272727 0.000000
vt 0.227273 0.078731
vt 0.318182 0.078731
vt 0.454545 0.000000
vt 0.409090 0.078731
vt 0.500000 0.078731
vt 0.681818 0.236191
vt 0.909090 0.157461
vt 0.818181 0.157461
vt 0.863635 0.236191
vt 0.181818 0.157461
vt 0.090909 0.157461
vt 0.136363 0.236191
vt 0.363636 0.157461
vt 0.272727 0.157461
vt 0.318182 0.236191
vt 0.545454 0.157461
vt 0.454545 0.157461
vt 0.500000 0.236191
vt 0.772726 0.236191
vt 0.954545 0.236191
vt 0.227273 0.236191
vt 0.409090 0.236191
vt 0.590909 0.236191
vt 0.818181 0.314921
vt 0.727272 0.314921
vt 0.772726 0.393651
vt 1.000000 0.314921
vt 0.909091 0.314921
vt 0.954545 0.393651
vt 0.272727 0.314921
vt 0.181818 0.314921
vt 0.227273 0.393651
vt 0.454545 0.314921
vt 0.363636 0.314921
vt 0.409090 0.393651
vt 0.636363 0.314921
vt 0.545454 0.314921
vt 0.590909 0.393651
vt 0.500000 0.393651
vt 0.545454 0.472382
vt 0.318182 0.393651
vt 0.363636 0.472382
vt 0.136363 0.393651
vt 0.181818 0.472382
vt 0.090909 0.314921
vt 0.863635 0.393651
vt 0.909090 0.472382
vt 0.681818 0.393651
vt 0.727272 0.472382
vt 0.045454 0.236191
vt 0.000000 0.157461
vt 0.590909 0.078731
vt 0.636363 0.000000
vn 0.1024 -0.9435 0.3151
vn 0.7002 -0.6617 0.2680
vn -0.2680 -0.9435 0.1947
vn -0.2680 -0.9435 -0.1947
vn 0.1024 -0.9435 -0.3151
vn 0.9050 -0.3304 0.2680
vn 0.0247 -0.3304 0.9435
vn -0.8897 -0.3304 0.3151
vn -0.5746 -0.3304 -0.7488
vn 0.5346 -0.3304 -0.7779
vn 0.8026 -0.1256 0.5831
vn -0.3066 -0.1256 0.9435
vn -0.9921 -0.1256 0.0000
vn -0.3066 -0.1256 -0.9435
vn 0.8026 -0.1256 -0.5831
vn 0.4089 0.6617 0.6284
vn -0.4713 0.6617 0.5831
vn -0.7002 0.6617 -0.2680
vn 0.0385 0.6617 -0.7488
vn 0.7240 0.6617 -0.1947
vn 0.2680 0.9435 -0.1947
vn 0.4911 0.7947 -0.3568
vn 0.4089 0.6617 -0.6284
vn -0.1024 0.9435 -0.3151
vn -0.1876 0.7947 -0.5773
vn -0.4713 0.6617 -0.5831
vn -0.3313 0.9435 0.0000
vn -0.6071 0.7947 0.0000
vn -0.7002 0.6617 0.2680
vn -0.1024 0.9435 0.3151
vn -0.1876 0.7947 0.5773
vn 0.0385 0.6617 0.7488
vn 0.2680 0.9435 0.1947
vn 0.4911 0.7947 0.3568
vn 0.7240 0.6617 0.1947
vn 0.8897 0.3304 -0.3151
vn 0.7947 0.1876 -0.5773
vn 0.5746 0.3304 -0.7488
vn -0.0247 0.3304 -0.9435
vn -0.3035 0.1876 -0.9342
vn -0.5346 0.3304 -0.7779
vn -0.9050 0.3304 -0.2680
vn -0.9822 0.1876 0.0000
vn -0.9050 0.3304 0.2680
vn -0.5346 0.3304 0.7779
vn -0.3035 0.1876 0.9342
vn -0.0247 0.3304 0.9435
vn 0.5746 0.3304 0.7488
vn 0.7947 0.1876 0.5773
vn 0.8897 0.3304 0.3151
vn 0.3066 0.1256 -0.9435
vn 0.3035 -0.1876 -0.9342
vn 0.0247 -0.3304 -0.9435
vn -0.8026 0.1256 -0.5831
vn -0.7947 -0.1876 -0.5773
vn -0.8897 -0.3304 -0.3151
vn -0.8026 0.1256 0.5831
vn -0.7947 -0.1876 0.5773
vn -0.5746 -0.3304 0.7488
vn 0.3066 0.1256 0.9435
vn 0.3035 -0.1876 0.9342
vn 0.5346 -0.3304 0.7779
vn 0.9921 0.1256 0.0000
vn 0.9822 -0.1876 0.0000
vn 0.9050 -0.3304 -0.2680
vn 0.4713 -0.6617 -0.5831
vn 0.1876 -0.7947 -0.5773
vn -0.0385 -0.6617 -0.7488
vn -0.4089 -0.6617 -0.6284
vn -0.4911 -0.7947 -0.3568
vn -0.7240 -0.6617 -0.1947
vn -0.7240 -0.6617 0.1947
vn -0.4911 -0.7947 0.3568
vn -0.4089 -0.6617 0.6284
vn 0.7002 -0.6617 -0.2680
vn 0.6071 -0.7947 0.0000
vn 0.3313 -0.9435 0.0000
vn -0.0385 -0.6617 0.7488
vn 0.1876 -0.7947 0.5773
vn 0.4713 -0.6617 0.5831
usemtl None
s off
f 1/1/1 14/2/1 13/3/1
f 2/4/2 14/5/2 16/6/2
f 1/7/3 13/8/3 18/9/3
f 1/10/4 18/11/4 20/12/4
f 1/13/5 20/14/5 17/15/5
f 2/4/6 16/6/6 23/16/6
f 3/17/7 15/18/7 25/19/7
f 4/20/8 19/21/8 27/22/8
f 5/23/9 21/24/9 29/25/9
f 6/26/10 22/27/10 31/28/10
f 2/4/11 23/16/11 26/29/11
f 3/17/12 25/19/12 28/30/12
f 4/20/13 27/22/13 30/31/13
f 5/23/14 29/25/14 32/32/14
f 6/26/15 31/28/15 24/33/15
f 7/34/16 33/35/16 38/36/16
f 8/37/17 34/38/17 40/39/17
f 9/40/18 35/41/18 41/42/18
f 10/43/19 36/44/19 42/45/19
f 11/46/20 37/47/20 39/48/20
f 39/48/21 42/49/21 12/50/21
f 39/48/22 37/47/22 42/49/22
f 37/47/23 10/43/23 42/49/23
f 42/45/24 41/51/24 12/52/24
f 42/45/25 36/44/25 41/51/25
f 36/44/26 9/40/26 41/51/26
f 41/42/27 40/53/27 12/54/27
f 41/42/28 35/41/28 40/53/28
f 35/41/29 8/55/29 40/53/29
f 40/39/30 38/56/30 12/57/30
f 40/39/31 34/38/31 38/56/31
f 34/38/32 7/34/32 38/56/32
f 38/36/33 39/58/33 12/59/33
f 38/36/34 33/35/34 39/58/34
f 33/35/35 11/46/35 39/58/35
f 24/33/36 37/47/36 11/46/36
f 24/33/37 31/28/37 37/47/37
f 31/28/38 10/43/38 37/47/38
f 32/32/39 36/44/39 10/43/39
f 32/32/40 29/25/40 36/44/40
f 29/25/41 9/40/41 36/44/41
f 30/31/42 35/41/42 9/40/42
f 30/31/43 27/22/43 35/41/43
f 27/22/44 8/55/44 35/41/44
f 28/30/45 34/38/45 8/37/45
f 28/30/46 25/19/46 34/38/46
f 25/19/47 7/34/47 34/38/47
f 26/29/48 33/35/48 7/34/48
f 26/29/49 23/16/49 33/35/49
f 23/16/50 11/46/50 33/35/50
f 31/28/51 32/32/51 10/43/51
f 31/28/52 22/27/52 32/32/52
f 22/27/53 5/23/53 32/32/53
f 29/25/54 30/31/54 9/40/54
f 29/25/55 21/24/55 30/31/55
f 21/24/56 4/20/56 30/31/56
f 27/22/57 28/60/57 8/55/57
f 27/22/58 19/21/58 28/60/58
f 19/21/59 3/61/59 28/60/59
f 25/19/60 26/29/60 7/34/60
f 25/19/61 15/18/61 26/29/61
f 15/18/62 2/4/62 26/29/62
f 23/16/63 24/33/63 11/46/63
f 23/16/64 16/6/64 24/33/64
f 16/6/65 6/26/65 24/33/65
f 17/15/66 22/27/66 6/26/66
f 17/15/67 20/14/67 22/27/67
f 20/14/68 5/23/68 22/27/68
f 20/12/69 21/24/69 5/23/69
f 20/12/70 18/11/70 21/24/70
f 18/11/71 4/20/71 21/24/71
f 18/9/72 19/21/72 4/20/72
f 18/9/73 13/8/73 19/21/73
f 13/8/74 3/61/74 19/21/74
f 16/6/75 17/62/75 6/26/75
f 16/6/76 14/5/76 17/62/76
f 14/5/77 1/63/77 17/62/77
f 13/3/78 15/18/78 3/17/78
f 13/3/79 14/2/79 15/18/79
f 14/2/80 2/4/80 15/18/80
o Cone
v 0.000000 -0.000000 -0.500000
v 0.000000 -0.097545 -0.490393
v 0.000000 -0.191342 -0.461940
v 0.000000 -0.277785 -0.415735
v 0.000000 -0.353554 -0.353553
v 0.000000 -0.415735 -0.277785
v 0.000000 -0.461940 -0.191342
v 0.000000 -0.490393 -0.097545
v 0.000000 -0.500000 -0.000000
v 0.000000 -0.490393 0.097545
v 0.000000 -0.461940 0.191342
v 0.000000 -0.415735 0.277785
v 0.000000 -0.353554 0.353553
v 0.000000 -0.277785 0.415735
v 0.000000 -0.191342 0.461940
v 0.000000 -0.097545 0.490393
v 0.000000 0.000000 0.500000
v 0.000000 0.097545 0.490393
v 0.000000 0.191342 0.461940
v 0.000000 0.277785 0.415735
v 0.000000 0.353553 0.353553
v 0.000000 0.415735 0.277785
v 0.000000 0.461940 0.191341
v 4.000000 0.000000 0.000000
v 0.000000 0.490393 0.097545
v 0.000000 0.500000 -0.000000
v 0.000000 0.490392 -0.097546
v 0.000000 0.461939 -0.191342
v 0.000000 0.415734 -0.277786
v 0.000000 0.353553 -0.353554
v 0.000000 0.277784 -0.415735
v 0.000000 0.191341 -0.461940
v 0.000000 0.097544 -0.490393
vt 0.250000 0.490000
vt 0.250000 0.250000
vt 0.296822 0.485388
vt 0.341844 0.471731
vt 0.383337 0.449553
vt 0.419706 0.419706
vt 0.449553 0.383337
vt 0.471731 0.341844
vt 0.485388 0.296822
vt 0.490000 0.250000
vt 0.485388 0.203178
vt 0.471731 0.158156
vt 0.449553 0.116663
vt 0.419706 0.080294
vt 0.383337 0.050447
vt 0.341844 0.028269
vt 0.296822 0.014612
vt 0.250000 0.010000
vt 0.203178 0.014612
vt 0.158156 0.028269
vt 0.116663 0.050447
vt 0.080294 0.080294
vt 0.050447 0.116663
vt 0.028269 0.158156
vt 0.014611 0.203179
vt 0.010000 0.250000
vt 0.014612 0.296822
vt 0.028269 0.341844
vt 0.050447 0.383337
vt 0.080295 0.419706
vt 0.116663 0.449553
vt 0.158156 0.471731
vt 0.203179 0.485389
vt 0.750000 0.490000
vt 0.796822 0.485388
vt 0.841844 0.471731
vt 0.883337 0.449553
vt 0.919706 0.419706
vt 0.949553 0.383337
vt 0.971731 0.341844
vt 0.985388 0.296822
vt 0.990000 0.250000
vt 0.985388 0.203178
vt 0.971731 0.158156
vt 0.949553 0.116663
vt 0.919706 0.080294
vt 0.883337 0.050447
vt 0.841844 0.028269
vt 0.796822 0.014612
vt 0.750000 0.010000
vt 0.703178 0.014612
vt 0.658156 0.028269
vt 0.616663 0.050447
vt 0.580294 0.080294
vt 0.550447 0.116663
vt 0.528269 0.158156
vt 0.514611 0.203179
vt 0.510000 0.250000
vt 0.514612 0.296822
vt 0.528269 0.341844
vt 0.550447 0.383337
vt 0.580295 0.419706
vt 0.616663 0.449553
vt 0.658156 0.471731
vt 0.703179 0.485389
vn 0.1234 -0.0973 -0.9876
vn 0.1234 -0.2881 -0.9496
vn 0.1234 -0.4678 -0.8752
vn 0.1234 -0.6295 -0.7671
vn 0.1234 -0.7671 -0.6295
vn 0.1234 -0.8752 -0.4678
vn 0.1234 -0.9496 -0.2881
vn 0.1234 -0.9876 -0.0973
vn 0.1234 -0.9876 0.0973
vn 0.1234 -0.9496 0.2881
vn 0.1234 -0.8752 0.4678
vn 0.1234 -0.7671 0.6295
vn 0.1234 -0.6295 0.7671
vn 0.1234 -0.4678 0.8752
vn 0.1234 -0.2881 0.9496
vn 0.1234 -0.0973 0.9876
vn 0.1234 0.0973 0.9876
vn 0.1234 0.2881 0.9496
vn 0.1234 0.4678 0.8752
vn 0.1234 0.6295 0.7671
vn 0.1234 0.7671 0.6295
vn 0.1234 0.8752 0.4678
vn 0.1234 0.9496 0.2881
vn 0.1234 0.9876 0.0973
vn 0.1234 0.9876 -0.0973
vn 0.1234 0.9496 -0.2881
vn 0.1234 0.8752 -0.4678
vn 0.1234 0.7671 -0.6295
vn 0.1234 0.6295 -0.7671
vn 0.1234 0.4678 -0.8752
vn 0.1234 0.2881 -0.9496
vn 0.1234 0.0973 -0.9876
vn -1.0000 0.0000 0.0000
usemtl None
s off
f 43/64/81 66/65/81 44/66/81
f 44/66/82 66/65/82 45/67/82
f 45/67/83 66/65/83 46/68/83
f 46/68/84 66/65/84 47/69/84
f 47/69/85 66/65/85 48/70/85
f 48/70/86 66/65/86 49/71/86
f 49/71/87 66/65/87 50/72/87
f 50/72/88 66/65/88 51/73/88
f 51/73/89 66/65/89 52/74/89
f 52/74/90 66/65/90 53/75/90
f 53/75/91 66/65/91 54/76/91
f 54/76/92 66/65/92 55/77/92
f 55/77/93 66/65/93 56/78/93
f 56/78/94 66/65/94 57/79/94
f 57/79/95 66/65/95 58/80/95
f 58/80/96 66/65/96 59/81/96
f 59/81/97 66/65/97 60/82/97
f 60/82/98 66/65/98 61/83/98
f 61/83/99 66/65/99 62/84/99
f 62/84/100 66/65/100 63/85/100
f 63/85/101 66/65/101 64/86/101
f 64/86/102 66/65/102 65/87/102
f 65/87/103 66/65/103 67/88/103
f 67/88/104 66/65/104 68/89/104
f 68/89/105 66/65/105 69/90/105
f 69/90/106 66/65/106 70/91/106
f 70/91/107 66/65/107 71/92/107
f 71/92/108 66/65/108 72/93/108
f 72/93/109 66/65/109 73/94/109
f 73/94/110 66/65/110 74/95/110
f 74/95/111 66/65/111 75/96/111
f 75/96/112 66/65/112 43/64/112
f 43/97/113 44/98/113 45/99/113 46/100/113 47/101/113 48/102/113 49/103/113 50/104/113 51/105/113 52/106/113 53/107/113 54/108/113 55/109/113 56/110/113 57/111/113 58/112/113 59/113/113 60/114/113 61/115/113 62/116/113 63/117/113 64/118/113 65/119/113 67/120/113 68/121/113 69/122/113 70/123/113 71/124/113 72/125/113 73/126/113 74/127/113 75/128/113
